<mxfile host="app.diagrams.net" agent="Mozilla/5.0 (Windows NT 10.0; Win64; x64) AppleWebKit/537.36 (KHTML, like Gecko) Chrome/134.0.0.0 Safari/537.36 Edg/134.0.0.0" version="26.2.14">
  <diagram name="Page-1" id="FoEoWMVOJTnuln3-TEQc">
    <mxGraphModel dx="919" dy="526" grid="1" gridSize="10" guides="1" tooltips="1" connect="0" arrows="0" fold="1" page="1" pageScale="1" pageWidth="850" pageHeight="1100" background="#ffffff" math="0" shadow="1">
      <root>
        <mxCell id="0" />
        <mxCell id="1" parent="0" />
        <mxCell id="AqOa6sonlPo9D2rfYCfu-1" value="&lt;font style=&quot;font-size: 14px;&quot;&gt;loan&lt;/font&gt;" style="rhombus;whiteSpace=wrap;html=1;labelBackgroundColor=none;fillColor=#B2C9AB;strokeColor=#788AA3;fontColor=#46495D;" parent="1" vertex="1">
          <mxGeometry x="330" y="80" width="100" height="80" as="geometry" />
        </mxCell>
        <mxCell id="AqOa6sonlPo9D2rfYCfu-2" value="&lt;font style=&quot;font-size: 15px;&quot;&gt;Author_ID&lt;/font&gt;&lt;div&gt;&lt;font style=&quot;font-size: 15px;&quot;&gt;Title&lt;/font&gt;&lt;/div&gt;&lt;div&gt;&lt;font style=&quot;font-size: 15px;&quot;&gt;Previluublished&lt;/font&gt;&lt;/div&gt;&lt;div&gt;&lt;font style=&quot;font-size: 15px;&quot;&gt;ISBN&lt;/font&gt;&lt;/div&gt;" style="whiteSpace=wrap;html=1;aspect=fixed;align=left;fillColor=#B2C9AB;labelBackgroundColor=none;strokeColor=#788AA3;fontColor=#46495D;" parent="1" vertex="1">
          <mxGeometry x="130" y="78.75" width="110" height="110" as="geometry" />
        </mxCell>
        <mxCell id="AqOa6sonlPo9D2rfYCfu-3" value="&lt;b&gt;&lt;font style=&quot;font-size: 17px;&quot;&gt;AUTHT&lt;/font&gt;&lt;/b&gt;" style="rounded=0;whiteSpace=wrap;html=1;fillColor=#B2C9AB;labelBackgroundColor=none;strokeColor=#788AA3;fontColor=#46495D;" parent="1" vertex="1">
          <mxGeometry x="129" y="42" width="111" height="40" as="geometry" />
        </mxCell>
        <mxCell id="AqOa6sonlPo9D2rfYCfu-4" value="" style="endArrow=none;html=1;rounded=0;labelBackgroundColor=none;strokeColor=#788AA3;fontColor=default;" parent="1" edge="1">
          <mxGeometry width="50" height="50" relative="1" as="geometry">
            <mxPoint x="240" y="120" as="sourcePoint" />
            <mxPoint x="330" y="120" as="targetPoint" />
            <Array as="points">
              <mxPoint x="300" y="120" />
            </Array>
          </mxGeometry>
        </mxCell>
        <mxCell id="AqOa6sonlPo9D2rfYCfu-5" value="" style="shape=umlLifeline;perimeter=lifelinePerimeter;whiteSpace=wrap;html=1;container=1;dropTarget=0;collapsible=0;recursiveResize=0;outlineConnect=0;portConstraint=eastwest;newEdgeStyle={&quot;curved&quot;:0,&quot;rounded&quot;:0};participant=umlEntity;rotation=90;size=40;labelBackgroundColor=none;fillColor=#B2C9AB;strokeColor=#788AA3;fontColor=#46495D;" parent="1" vertex="1">
          <mxGeometry x="446.25" y="78.75" width="40" height="82.5" as="geometry" />
        </mxCell>
        <mxCell id="AqOa6sonlPo9D2rfYCfu-6" value="&lt;span style=&quot;font-size: 15px;&quot;&gt;Book_ID&lt;/span&gt;&lt;div&gt;&lt;span style=&quot;font-size: 15px;&quot;&gt;Year_Published&lt;/span&gt;&lt;/div&gt;&lt;div&gt;&lt;span style=&quot;font-size: 15px;&quot;&gt;ISBN&lt;/span&gt;&lt;/div&gt;" style="whiteSpace=wrap;html=1;aspect=fixed;align=left;fillColor=#B2C9AB;labelBackgroundColor=none;strokeColor=#788AA3;fontColor=#46495D;" parent="1" vertex="1">
          <mxGeometry x="509" y="76" width="110" height="110" as="geometry" />
        </mxCell>
        <mxCell id="AqOa6sonlPo9D2rfYCfu-7" value="&lt;span style=&quot;font-size: 17px;&quot;&gt;&lt;b&gt;Category&lt;/b&gt;&lt;/span&gt;" style="rounded=0;whiteSpace=wrap;html=1;fillColor=#B2C9AB;labelBackgroundColor=none;strokeColor=#788AA3;fontColor=#46495D;" parent="1" vertex="1">
          <mxGeometry x="508" y="36" width="111" height="40" as="geometry" />
        </mxCell>
        <mxCell id="_Przkqatav0WZT243xfE-3" value="Memer" style="rounded=0;whiteSpace=wrap;html=1;labelBackgroundColor=none;fillColor=#B2C9AB;strokeColor=#788AA3;fontColor=#46495D;" vertex="1" parent="1">
          <mxGeometry x="129" y="330" width="110" height="50" as="geometry" />
        </mxCell>
        <mxCell id="_Przkqatav0WZT243xfE-4" value="Member_ID (PK)&lt;div&gt;Name&amp;nbsp; &amp;nbsp; &amp;nbsp; &amp;nbsp; &amp;nbsp; &amp;nbsp; &amp;nbsp; &amp;nbsp;&lt;/div&gt;&lt;div&gt;Email&amp;nbsp; &amp;nbsp; &amp;nbsp; &amp;nbsp; &amp;nbsp; &amp;nbsp; &amp;nbsp; &amp;nbsp;&amp;nbsp;&lt;/div&gt;&lt;div&gt;address&amp;nbsp; &amp;nbsp; &amp;nbsp; &amp;nbsp; &amp;nbsp; &amp;nbsp; &amp;nbsp;&lt;/div&gt;&lt;div&gt;Phone&amp;nbsp; &amp;nbsp; &amp;nbsp; &amp;nbsp; &amp;nbsp; &amp;nbsp; &amp;nbsp; &amp;nbsp;&lt;/div&gt;" style="whiteSpace=wrap;html=1;aspect=fixed;labelBackgroundColor=none;fillColor=#B2C9AB;strokeColor=#788AA3;fontColor=#46495D;" vertex="1" parent="1">
          <mxGeometry x="129.5" y="380" width="110" height="110" as="geometry" />
        </mxCell>
        <mxCell id="_Przkqatav0WZT243xfE-7" value="Member" style="rounded=0;whiteSpace=wrap;html=1;labelBackgroundColor=none;fillColor=#B2C9AB;strokeColor=#788AA3;fontColor=#46495D;" vertex="1" parent="1">
          <mxGeometry x="130" y="630" width="109" height="50" as="geometry" />
        </mxCell>
        <mxCell id="_Przkqatav0WZT243xfE-8" value="Mambe&amp;nbsp; &amp;nbsp; &amp;nbsp; &amp;nbsp; &amp;nbsp; &amp;nbsp; &amp;nbsp;&lt;div&gt;Email&amp;nbsp; &amp;nbsp; &amp;nbsp; &amp;nbsp; &amp;nbsp; &amp;nbsp;&amp;nbsp;&lt;/div&gt;&lt;div&gt;&amp;nbsp; &amp;nbsp;&amp;nbsp;&lt;/div&gt;&lt;div&gt;&amp;nbsp; &amp;nbsp;&amp;nbsp;&lt;/div&gt;&lt;div&gt;&amp;nbsp;&amp;nbsp; &amp;nbsp; &amp;nbsp;&lt;/div&gt;" style="whiteSpace=wrap;html=1;aspect=fixed;labelBackgroundColor=none;fillColor=#B2C9AB;strokeColor=#788AA3;fontColor=#46495D;" vertex="1" parent="1">
          <mxGeometry x="130" y="680" width="109" height="109" as="geometry" />
        </mxCell>
        <mxCell id="_Przkqatav0WZT243xfE-9" value="" style="endArrow=none;html=1;rounded=0;exitX=0.45;exitY=1.004;exitDx=0;exitDy=0;exitPerimeter=0;labelBackgroundColor=none;strokeColor=#788AA3;fontColor=default;" edge="1" parent="1" source="AqOa6sonlPo9D2rfYCfu-2">
          <mxGeometry width="50" height="50" relative="1" as="geometry">
            <mxPoint x="170" y="192" as="sourcePoint" />
            <mxPoint x="180" y="240" as="targetPoint" />
          </mxGeometry>
        </mxCell>
        <mxCell id="_Przkqatav0WZT243xfE-10" value="" style="endArrow=none;html=1;rounded=0;exitX=0.508;exitY=1;exitDx=0;exitDy=0;exitPerimeter=0;labelBackgroundColor=none;strokeColor=#788AA3;fontColor=default;" edge="1" parent="1" source="_Przkqatav0WZT243xfE-18">
          <mxGeometry width="50" height="50" relative="1" as="geometry">
            <mxPoint x="173.5999999999999" y="291.95000000000005" as="sourcePoint" />
            <mxPoint x="180" y="330" as="targetPoint" />
          </mxGeometry>
        </mxCell>
        <mxCell id="_Przkqatav0WZT243xfE-17" value="Arstor" style="shape=rhombus;perimeter=rhombusPerimeter;whiteSpace=wrap;html=1;align=center;labelBackgroundColor=none;fillColor=#B2C9AB;strokeColor=#788AA3;fontColor=#46495D;" vertex="1" parent="1">
          <mxGeometry x="119" y="520" width="120" height="60" as="geometry" />
        </mxCell>
        <mxCell id="_Przkqatav0WZT243xfE-18" value="Author" style="shape=rhombus;perimeter=rhombusPerimeter;whiteSpace=wrap;html=1;align=center;labelBackgroundColor=none;fillColor=#B2C9AB;strokeColor=#788AA3;fontColor=#46495D;" vertex="1" parent="1">
          <mxGeometry x="119" y="230" width="120" height="60" as="geometry" />
        </mxCell>
        <mxCell id="_Przkqatav0WZT243xfE-21" value="" style="endArrow=none;html=1;rounded=0;exitX=0.475;exitY=1.011;exitDx=0;exitDy=0;exitPerimeter=0;labelBackgroundColor=none;strokeColor=#788AA3;fontColor=default;" edge="1" parent="1" source="_Przkqatav0WZT243xfE-4" target="_Przkqatav0WZT243xfE-17">
          <mxGeometry width="50" height="50" relative="1" as="geometry">
            <mxPoint x="200" y="440" as="sourcePoint" />
            <mxPoint x="250" y="390" as="targetPoint" />
          </mxGeometry>
        </mxCell>
        <mxCell id="_Przkqatav0WZT243xfE-22" value="" style="endArrow=none;html=1;rounded=0;exitX=0.498;exitY=0.977;exitDx=0;exitDy=0;exitPerimeter=0;entryX=0.448;entryY=-0.035;entryDx=0;entryDy=0;entryPerimeter=0;labelBackgroundColor=none;strokeColor=#788AA3;fontColor=default;" edge="1" parent="1" source="_Przkqatav0WZT243xfE-17" target="_Przkqatav0WZT243xfE-7">
          <mxGeometry width="50" height="50" relative="1" as="geometry">
            <mxPoint x="200" y="440" as="sourcePoint" />
            <mxPoint x="250" y="390" as="targetPoint" />
          </mxGeometry>
        </mxCell>
      </root>
    </mxGraphModel>
  </diagram>
</mxfile>
